<svg width="20" height="20" viewBox="0 0 20 20" fill="none" xmlns="http://www.w3.org/2000/svg">
<path d="M5.75 5.625C5.75 6.38439 5.13439 7 4.375 7C3.61561 7 3 6.38439 3 5.625C3 4.86561 3.61561 4.25 4.375 4.25C5.13439 4.25 5.75 4.86561 5.75 5.625ZM5.75 14.375C5.75 15.1344 5.13439 15.75 4.375 15.75C3.61561 15.75 3 15.1344 3 14.375C3 13.6156 3.61561 13 4.375 13C5.13439 13 5.75 13.6156 5.75 14.375ZM10.5 14.25H18.25V14.5H10.5V14.25ZM10.5 5.5H18.25V5.75H10.5V5.5Z" fill="#D0D1D3" stroke="#ACADAF"/>
</svg>
