<svg width="20" height="20" viewBox="0 0 20 20" fill="none" xmlns="http://www.w3.org/2000/svg">
<path d="M4.5 7.5V8H5H5.75V8.25H3V8H3.75H4.25V7.5V4.375V3.875H3.75H3V3.625H3.75H4.25V3.125V3H4.5V7.5ZM3.75 16.75H5.75V17H3V15C3 14.8011 3.07902 14.6103 3.21967 14.4697C3.36032 14.329 3.55109 14.25 3.75 14.25H5H5.5V13.75V12.5V12H5H3V11.75H5C5.19891 11.75 5.38968 11.829 5.53033 11.9697C5.67098 12.1103 5.75 12.3011 5.75 12.5V13.75C5.75 13.9489 5.67098 14.1397 5.53033 14.2803C5.38968 14.421 5.19891 14.5 5 14.5H3.75H3.25V15V16.25V16.75H3.75ZM10.5 14.25H18.25V14.5H10.5V14.25ZM10.5 5.5H18.25V5.75H10.5V5.5Z" fill="#D0D1D3" stroke="#ACADAF"/>
</svg>
